<svg version="1.1" id="Layer_1" xmlns="http://www.w3.org/2000/svg" xmlns:xlink="http://www.w3.org/1999/xlink" x="0px" y="0px"
	 width="100%" viewBox="0 0 186 189" enable-background="new 0 0 186 189" xml:space="preserve">
<path fill="#FEFFFF" opacity="1.000000" stroke="none" 
	d="
M187.000000,78.000000 
	C187.000000,115.666664 187.000000,152.833328 187.000000,190.000000 
	C125.000000,190.000000 63.000000,190.000000 1.000000,190.000000 
	C1.000000,127.000000 1.000000,64.000000 1.000000,1.000000 
	C63.000000,1.000000 125.000000,1.000000 187.000000,1.000000 
	C187.000000,26.500000 187.000000,52.000000 187.000000,78.000000 
M105.190689,20.097496 
	C103.794411,20.096952 102.398140,20.096407 100.139641,19.923550 
	C98.093216,19.949684 96.046783,19.975821 93.101715,19.847294 
	C90.071556,20.002649 87.041389,20.158005 83.241219,20.235016 
	C80.165512,20.919697 77.089813,21.604378 73.300415,22.268856 
	C70.522293,23.481171 67.744179,24.693483 64.278587,25.974941 
	C62.483559,26.872280 60.688526,27.769619 58.213371,28.866522 
	C55.940807,30.473867 53.668243,32.081215 50.783131,33.895798 
	C48.498981,35.873329 46.214832,37.850857 43.317036,40.118771 
	C40.497066,43.389767 37.677097,46.660763 34.285412,50.279324 
	C31.801943,54.759411 29.318474,59.239494 26.312914,64.222969 
	C18.084866,83.770699 17.433044,103.362007 26.044218,123.726822 
	C29.049549,128.783234 32.054882,133.839645 35.269909,139.537537 
	C37.857594,142.328934 40.445278,145.120346 43.346928,148.503235 
	C46.197544,150.765961 49.048164,153.028687 52.247482,155.833908 
	C54.502167,157.171951 56.756851,158.509979 59.562931,160.283813 
	C61.708645,161.192017 63.854359,162.100220 66.558784,163.456650 
	C69.366333,164.384567 72.173889,165.312469 75.582855,166.636139 
	C77.723511,167.042267 79.864159,167.448380 82.786583,168.043579 
	C85.193527,168.295883 87.600471,168.548172 90.884682,168.957428 
	C93.258835,168.915726 95.632996,168.874023 98.788292,168.952423 
	C100.544159,168.711823 102.300018,168.471222 104.833923,168.293518 
	C106.602684,168.041092 108.371437,167.788651 110.903908,167.426849 
	C112.602646,166.944534 114.301392,166.462219 116.721352,166.014297 
	C118.865990,165.145523 121.010628,164.276749 123.858124,163.225998 
	C125.934631,162.217636 128.011139,161.209274 130.775208,160.066589 
	C132.854080,158.720627 134.932968,157.374664 137.650177,155.836258 
	C139.510941,154.255661 141.371704,152.675049 143.838669,150.858490 
	C145.952179,148.731064 148.065674,146.603622 150.786316,144.091736 
	C153.219543,140.741882 155.652786,137.392029 158.665421,133.649155 
	C160.513138,130.072281 162.714905,126.631538 164.150909,122.896400 
	C173.217087,99.314606 171.872162,76.539986 158.184372,54.154240 
	C155.731796,51.106239 153.279221,48.058239 150.772415,44.346519 
	C147.620529,41.512325 144.468628,38.678131 140.961929,35.243969 
	C137.721344,33.113804 134.480759,30.983635 130.783707,28.310347 
	C127.879913,27.116583 124.976112,25.922821 121.588058,24.232792 
	C119.059227,23.500603 116.530403,22.768414 113.343056,21.643875 
	C111.577179,21.366310 109.811302,21.088745 107.630180,20.442450 
	C107.085808,20.406700 106.541443,20.370951 105.190689,20.097496 
z"/>
<path fill="#39B7CD" opacity="1.000000" stroke="none" 
	d="
M74.014107,22.289062 
	C77.089813,21.604378 80.165512,20.919697 83.624466,20.720703 
	C84.005150,37.405338 83.957542,53.604580 84.063019,69.802826 
	C84.074814,71.615105 84.955048,73.421722 85.206833,75.504395 
	C84.478462,76.521965 83.975800,77.266121 83.127350,78.165009 
	C82.521049,79.904846 82.042465,81.488861 82.034561,83.075226 
	C81.972313,95.570099 82.065315,108.065979 81.957611,120.560234 
	C81.927818,124.017105 81.383499,127.469543 81.038483,130.963806 
	C81.001717,131.003601 80.930222,131.083130 80.636505,131.167862 
	C80.162628,131.832764 79.982475,132.412933 79.540039,132.825562 
	C73.860374,130.832932 75.074181,126.268906 75.009140,122.257301 
	C74.960571,119.261986 75.259872,116.232559 74.891006,113.282501 
	C74.696602,111.727684 73.402962,110.310310 72.685219,108.452438 
	C72.849464,105.892853 72.934135,103.711700 73.013847,101.091347 
	C73.005821,76.798141 72.975441,52.944054 73.043953,29.090258 
	C73.050476,26.822281 73.675964,24.556086 74.014107,22.289062 
z"/>
<path fill="#4CCDDA" opacity="1.000000" stroke="none" 
	d="
M51.898781,155.291412 
	C49.048164,153.028687 46.197544,150.765961 43.237865,147.798767 
	C43.419079,145.473785 43.961277,143.853485 43.962517,142.232742 
	C43.988605,108.097984 43.953663,73.963181 43.930679,39.828384 
	C46.214832,37.850857 48.498981,35.873329 51.479233,34.056831 
	C52.450062,35.966980 52.951969,37.714703 52.962738,39.465443 
	C53.033909,51.038528 52.921730,62.613388 53.088970,74.184494 
	C53.112305,75.798973 54.340672,77.396034 55.030956,79.414879 
	C53.225342,88.183571 51.481655,96.557747 49.524590,104.881752 
	C48.941608,107.361336 48.759712,109.132202 52.004986,109.631828 
	C51.967915,125.156845 51.933346,140.224121 51.898781,155.291412 
z"/>
<path fill="#118AB1" opacity="1.000000" stroke="none" 
	d="
M150.179184,144.476196 
	C148.065674,146.603622 145.952179,148.731064 143.122650,150.878510 
	C141.937775,149.271973 141.073578,147.648270 141.061798,146.018402 
	C140.956009,131.374939 141.043243,116.730125 140.951492,102.086479 
	C140.938354,99.988228 140.273193,97.894066 139.918060,95.401398 
	C140.162506,94.049080 140.491486,93.105690 140.620239,92.135719 
	C141.714523,83.891891 144.105713,75.468842 137.875031,67.968979 
	C138.495209,66.129471 138.948288,64.547585 138.965500,62.960968 
	C139.044006,55.726959 138.847885,48.486183 139.106003,41.260540 
	C139.171356,39.431015 140.544525,37.648212 141.316742,35.843941 
	C144.468628,38.678131 147.620529,41.512325 150.417450,44.784462 
	C149.708344,46.584946 149.047806,47.946880 149.045105,49.310116 
	C148.986084,79.105400 148.978287,108.900879 149.050751,138.696106 
	C149.055450,140.623703 149.786179,142.549545 150.179184,144.476196 
z"/>
<path fill="#097FAB" opacity="1.000000" stroke="none" 
	d="
M158.407593,54.824188 
	C171.872162,76.539986 173.217087,99.314606 164.150909,122.896400 
	C162.714905,126.631538 160.513138,130.072281 158.061188,133.611115 
	C156.971497,131.860443 156.070435,130.149536 156.063400,128.434937 
	C155.969467,105.534828 155.951279,82.633873 156.104248,59.734406 
	C156.115204,58.092609 157.605255,56.460697 158.407593,54.824188 
z"/>
<path fill="#51D2DD" opacity="1.000000" stroke="none" 
	d="
M43.623856,39.973579 
	C43.953663,73.963181 43.988605,108.097984 43.962517,142.232742 
	C43.961277,143.853485 43.419079,145.473785 43.080887,147.503021 
	C40.445278,145.120346 37.857594,142.328934 35.326462,138.841156 
	C35.588531,137.017120 35.972080,135.889725 35.973488,134.761826 
	C36.007133,107.851761 36.016502,80.941605 35.951275,54.031658 
	C35.947956,52.664150 35.238049,51.298351 34.857128,49.931759 
	C37.677097,46.660763 40.497066,43.389767 43.623856,39.973579 
z"/>
<path fill="#36B2CA" opacity="1.000000" stroke="none" 
	d="
M81.075256,130.924011 
	C81.383499,127.469543 81.927818,124.017105 81.957611,120.560234 
	C82.065315,108.065979 81.972313,95.570099 82.034561,83.075226 
	C82.042465,81.488861 82.521049,79.904846 83.331573,78.472961 
	C84.768478,80.098671 85.655388,81.571152 86.667114,83.250854 
	C89.639336,81.435143 92.088158,79.939178 95.440437,77.891296 
	C93.366074,87.543495 91.468979,96.100410 89.738586,104.690903 
	C89.452812,106.109558 89.897057,107.675262 90.002441,109.630760 
	C89.987343,117.095100 89.973724,124.101700 89.656128,131.183838 
	C89.543129,132.109619 89.734108,132.959869 89.947502,134.290192 
	C89.982414,146.113663 89.994919,157.457077 90.007416,168.800476 
	C87.600471,168.548172 85.193527,168.295883 82.394073,167.490662 
	C82.503632,155.608368 83.047150,144.280304 83.400208,132.946289 
	C83.420425,132.296982 81.886093,131.599228 81.075256,130.924011 
z"/>
<path fill="#41BFD2" opacity="1.000000" stroke="none" 
	d="
M73.657257,22.278959 
	C73.675964,24.556086 73.050476,26.822281 73.043953,29.090258 
	C72.975441,52.944054 73.005821,76.798141 72.557907,101.196381 
	C68.176498,101.740608 64.246056,101.740608 59.690784,101.740608 
	C60.025448,99.452988 60.187710,97.699722 60.548382,95.988266 
	C62.247822,87.924065 64.090317,79.888519 65.658195,71.799416 
	C65.957230,70.256615 65.248459,68.518471 65.003143,66.409920 
	C64.989769,52.601524 64.977913,39.253662 64.966057,25.905798 
	C67.744179,24.693483 70.522293,23.481171 73.657257,22.278959 
z"/>
<path fill="#0B83AD" opacity="1.000000" stroke="none" 
	d="
M158.295990,54.489212 
	C157.605255,56.460697 156.115204,58.092609 156.104248,59.734406 
	C155.951279,82.633873 155.969467,105.534828 156.063400,128.434937 
	C156.070435,130.149536 156.971497,131.860443 157.771484,133.807617 
	C155.652786,137.392029 153.219543,140.741882 150.482758,144.283966 
	C149.786179,142.549545 149.055450,140.623703 149.050751,138.696106 
	C148.978287,108.900879 148.986084,79.105400 149.045105,49.310116 
	C149.047806,47.946880 149.708344,46.584946 150.444550,45.116325 
	C153.279221,48.058239 155.731796,51.106239 158.295990,54.489212 
z"/>
<path fill="#56D7E1" opacity="1.000000" stroke="none" 
	d="
M34.571270,50.105541 
	C35.238049,51.298351 35.947956,52.664150 35.951275,54.031658 
	C36.016502,80.941605 36.007133,107.851761 35.973488,134.761826 
	C35.972080,135.889725 35.588531,137.017120 35.221611,138.520416 
	C32.054882,133.839645 29.049549,128.783234 26.408304,123.276093 
	C27.181377,121.498581 27.939802,120.173508 27.946280,118.844765 
	C28.027313,102.223343 28.034061,85.601219 27.948433,68.979836 
	C27.939390,67.224548 27.223150,65.472908 26.835003,63.719578 
	C29.318474,59.239494 31.801943,54.759411 34.571270,50.105541 
z"/>
<path fill="#26A1C0" opacity="1.000000" stroke="none" 
	d="
M108.045425,20.811180 
	C109.811302,21.088745 111.577179,21.366310 113.671799,22.306087 
	C114.000351,38.999340 113.945969,55.030842 114.081711,71.060730 
	C114.095680,72.710060 115.245064,74.349777 115.817322,76.351852 
	C112.124428,85.847412 109.860954,95.108475 112.910103,105.150551 
	C112.385849,113.923355 112.198273,122.420662 111.588226,130.937622 
	C107.285271,131.291183 108.017471,128.462204 108.013718,126.253906 
	C107.987442,110.797050 108.111237,95.338631 107.902748,79.884537 
	C107.862518,76.902672 106.569603,73.937706 105.845947,70.572678 
	C105.839584,69.139633 105.841850,68.098854 106.205681,66.870453 
	C107.044731,64.847824 107.918236,63.016708 107.936378,61.177158 
	C108.069084,47.722782 108.030182,34.266716 108.045425,20.811180 
z"/>
<path fill="#32B0C8" opacity="1.000000" stroke="none" 
	d="
M85.432549,75.230965 
	C84.955048,73.421722 84.074814,71.615105 84.063019,69.802826 
	C83.957542,53.604580 84.005150,37.405338 84.009468,20.759872 
	C87.041389,20.158005 90.071556,20.002649 93.551010,20.393135 
	C94.000305,34.982063 93.955780,49.025448 94.048706,63.067924 
	C94.062515,65.154716 94.724007,67.237213 94.880692,69.574684 
	C91.594528,71.628769 88.513542,73.429863 85.432549,75.230965 
z"/>
<path fill="#3FBCD0" opacity="1.000000" stroke="none" 
	d="
M72.605652,108.830872 
	C73.402962,110.310310 74.696602,111.727684 74.891006,113.282501 
	C75.259872,116.232559 74.960571,119.261986 75.009140,122.257301 
	C75.074181,126.268906 73.860374,130.832932 79.596535,133.078690 
	C79.930992,133.671478 79.946663,133.843628 79.593536,134.058258 
	C75.653557,135.280151 74.830811,137.831757 74.926849,141.398438 
	C75.149666,149.673584 74.987526,157.959076 74.981438,166.240387 
	C72.173889,165.312469 69.366333,164.384567 66.279518,162.763184 
	C66.002129,144.438477 66.004005,126.807228 66.420364,109.114105 
	C68.758446,108.978439 70.682053,108.904655 72.605652,108.830872 
z"/>
<path fill="#30ADC6" opacity="1.000000" stroke="none" 
	d="
M90.446045,168.878952 
	C89.994919,157.457077 89.982414,146.113663 89.966980,133.952774 
	C89.962746,132.459625 89.961426,131.783951 89.960114,131.108292 
	C89.973724,124.101700 89.987343,117.095100 90.436676,109.568680 
	C93.191223,108.915169 95.510048,108.781479 97.879265,109.086739 
	C98.286362,114.790367 98.997437,120.062988 98.879616,125.317024 
	C98.796112,129.040482 100.208328,130.347198 103.414444,130.734924 
	C102.883720,131.911316 102.519218,132.683014 102.008377,133.666046 
	C101.916801,134.404800 101.971573,134.932251 101.754471,135.487366 
	C97.015877,132.447174 98.108788,136.742920 98.082954,138.378296 
	C97.922600,148.527512 98.005180,158.680557 98.007149,168.832336 
	C95.632996,168.874023 93.258835,168.915726 90.446045,168.878952 
z"/>
<path fill="#2AA4C1" opacity="1.000000" stroke="none" 
	d="
M105.854561,70.964943 
	C106.569603,73.937706 107.862518,76.902672 107.902748,79.884537 
	C108.111237,95.338631 107.987442,110.797050 108.013718,126.253906 
	C108.017471,128.462204 107.285271,131.291183 111.986237,130.963318 
	C113.870842,130.979965 114.934959,130.990585 116.024841,131.322037 
	C116.392670,132.423584 116.734749,133.204300 117.048981,134.246826 
	C117.010979,134.683823 117.000832,134.859024 116.771889,135.132980 
	C116.280144,135.423279 116.095062,135.678558 115.616219,135.992935 
	C111.602127,134.774490 109.803596,135.560349 109.931519,139.910431 
	C110.202148,149.113113 110.093361,158.326965 110.140198,167.536224 
	C108.371437,167.788651 106.602684,168.041092 104.428284,167.775909 
	C104.015945,156.574097 104.009232,145.889877 104.253067,135.003143 
	C104.646263,134.204330 104.788933,133.608032 104.945305,132.665634 
	C104.937820,131.628281 104.916626,130.937012 104.926575,129.762619 
	C104.971779,115.349770 105.041451,101.419579 104.919510,87.491058 
	C104.906364,85.989738 103.780800,84.498154 103.151505,82.610603 
	C104.039360,78.467751 104.946960,74.716347 105.854561,70.964943 
z"/>
<path fill="#47C7D6" opacity="1.000000" stroke="none" 
	d="
M52.073132,155.562653 
	C51.933346,140.224121 51.967915,125.156845 52.445755,109.571381 
	C55.261269,109.093353 57.633503,109.133499 60.003803,109.631416 
	C60.001240,124.228661 60.047237,138.368439 59.955578,152.507309 
	C59.939705,154.956146 59.341022,157.401215 59.011539,159.848022 
	C56.756851,158.509979 54.502167,157.171951 52.073132,155.562653 
z"/>
<path fill="#1C97B9" opacity="1.000000" stroke="none" 
	d="
M130.087646,160.200928 
	C128.011139,161.209274 125.934631,162.217636 123.339012,162.897903 
	C122.546524,160.630600 122.044273,158.692383 122.035934,156.752045 
	C121.968689,141.102615 121.994377,125.452789 122.382507,109.743843 
	C124.847527,109.436699 126.921722,109.188789 128.997192,109.413254 
	C128.998962,124.578354 128.956818,139.271347 129.048355,153.963516 
	C129.061340,156.044724 129.725098,158.121887 130.087646,160.200928 
z"/>
<path fill="#1C97B9" opacity="1.000000" stroke="none" 
	d="
M122.072319,24.729057 
	C124.976112,25.922821 127.879913,27.116583 130.678650,28.863415 
	C130.382416,31.204643 130.035202,32.991978 130.025681,34.781101 
	C129.970062,45.243477 129.993484,55.706276 129.650406,66.310883 
	C126.873215,67.235214 124.435852,68.017593 121.935272,68.398270 
	C121.938812,53.574059 122.005569,39.151558 122.072319,24.729057 
z"/>
<path fill="#5DDDE4" opacity="1.000000" stroke="none" 
	d="
M26.573959,63.971275 
	C27.223150,65.472908 27.939390,67.224548 27.948433,68.979836 
	C28.034061,85.601219 28.027313,102.223343 27.946280,118.844765 
	C27.939802,120.173508 27.181377,121.498581 26.373600,122.915771 
	C17.433044,103.362007 18.084866,83.770699 26.573959,63.971275 
z"/>
<path fill="#219CBC" opacity="1.000000" stroke="none" 
	d="
M121.830185,24.480925 
	C122.005569,39.151558 121.938812,53.574059 121.708221,68.653885 
	C119.652122,71.538788 117.759857,73.766373 115.867592,75.993950 
	C115.245064,74.349777 114.095680,72.710060 114.081711,71.060730 
	C113.945969,55.030842 114.000351,38.999340 114.001053,22.502262 
	C116.530403,22.768414 119.059227,23.500603 121.830185,24.480925 
z"/>
<path fill="#2CA9C4" opacity="1.000000" stroke="none" 
	d="
M95.085861,69.321701 
	C94.724007,67.237213 94.062515,65.154716 94.048706,63.067924 
	C93.955780,49.025448 94.000305,34.982063 94.000336,20.470467 
	C96.046783,19.975821 98.093216,19.949684 100.570160,20.471575 
	C101.001244,36.302845 101.001793,51.586094 100.649139,66.945457 
	C98.559242,67.788284 96.822548,68.554993 95.085861,69.321701 
z"/>
<path fill="#148EB4" opacity="1.000000" stroke="none" 
	d="
M139.909790,95.798012 
	C140.273193,97.894066 140.938354,99.988228 140.951492,102.086479 
	C141.043243,116.730125 140.956009,131.374939 141.061798,146.018402 
	C141.073578,147.648270 141.937775,149.271973 142.819550,150.996490 
	C141.371704,152.675049 139.510941,154.255661 137.098709,155.616333 
	C136.031494,153.595627 135.087524,151.799301 135.068863,149.993393 
	C134.938522,137.387482 135.081177,124.778488 134.912018,112.173492 
	C134.886536,110.275185 133.691498,108.392578 133.261078,106.223450 
	C135.626389,102.562134 137.768097,99.180069 139.909790,95.798012 
z"/>
<path fill="#1790B5" opacity="1.000000" stroke="none" 
	d="
M129.990234,66.168930 
	C129.993484,55.706276 129.970062,45.243477 130.025681,34.781101 
	C130.035202,32.991978 130.382416,31.204643 130.906891,29.134975 
	C134.480759,30.983635 137.721344,33.113804 141.139343,35.543953 
	C140.544525,37.648212 139.171356,39.431015 139.106003,41.260540 
	C138.847885,48.486183 139.044006,55.726959 138.965500,62.960968 
	C138.948288,64.547585 138.495209,66.129471 137.535553,67.877548 
	C134.548920,67.417351 132.269592,66.793137 129.990234,66.168930 
z"/>
<path fill="#219CBC" opacity="1.000000" stroke="none" 
	d="
M121.991684,109.803085 
	C121.994377,125.452789 121.968689,141.102615 122.035934,156.752045 
	C122.044273,158.692383 122.546524,160.630600 122.987579,162.988892 
	C121.010628,164.276749 118.865990,165.145523 116.360641,165.529861 
	C115.999237,155.362808 115.998550,145.680176 115.997864,135.997559 
	C116.095062,135.678558 116.280144,135.423279 116.939484,135.348129 
	C117.731491,135.412689 118.137115,135.360825 118.542740,135.308975 
	C118.054100,134.867661 117.565460,134.426346 117.076820,133.985031 
	C116.734749,133.204300 116.392670,132.423584 116.025093,130.853271 
	C116.037971,122.583153 116.076355,115.102638 116.445496,107.741501 
	C118.514732,108.508286 120.253212,109.155685 121.991684,109.803085 
z"/>
<path fill="#42C2D3" opacity="1.000000" stroke="none" 
	d="
M59.287235,160.065918 
	C59.341022,157.401215 59.939705,154.956146 59.955578,152.507309 
	C60.047237,138.368439 60.001240,124.228661 60.429199,109.569901 
	C62.572983,109.092392 64.289436,109.134186 66.005882,109.175980 
	C66.004005,126.807228 66.002129,144.438477 66.000160,162.539093 
	C63.854359,162.100220 61.708645,161.192017 59.287235,160.065918 
z"/>
<path fill="#1792B6" opacity="1.000000" stroke="none" 
	d="
M133.037460,106.502708 
	C133.691498,108.392578 134.886536,110.275185 134.912018,112.173492 
	C135.081177,124.778488 134.938522,137.387482 135.068863,149.993393 
	C135.087524,151.799301 136.031494,153.595627 136.779541,155.712555 
	C134.932968,157.374664 132.854080,158.720627 130.431427,160.133759 
	C129.725098,158.121887 129.061340,156.044724 129.048355,153.963516 
	C128.956818,139.271347 128.998962,124.578354 129.209183,109.195114 
	C130.625763,107.837303 131.831619,107.170006 133.037460,106.502708 
z"/>
<path fill="#47C7D6" opacity="1.000000" stroke="none" 
	d="
M55.011215,79.001160 
	C54.340672,77.396034 53.112305,75.798973 53.088970,74.184494 
	C52.921730,62.613388 53.033909,51.038528 52.962738,39.465443 
	C52.951969,37.714703 52.450062,35.966980 51.785507,33.953209 
	C53.668243,32.081215 55.940807,30.473867 58.623360,29.209663 
	C59.355545,31.669237 59.935986,33.783211 59.956177,35.902523 
	C60.054523,46.224991 60.003071,56.548882 59.611855,66.945282 
	C58.547153,67.532906 57.441498,67.936020 57.275742,68.580757 
	C56.391331,72.020912 55.741913,75.521484 55.011215,79.001160 
z"/>
<path fill="#39B7CD" opacity="1.000000" stroke="none" 
	d="
M75.282150,166.438263 
	C74.987526,157.959076 75.149666,149.673584 74.926849,141.398438 
	C74.830811,137.831757 75.653557,135.280151 79.610695,134.058090 
	C79.996651,134.015411 79.981293,134.040436 80.003296,134.293152 
	C80.206261,134.794098 80.387215,135.042328 80.568176,135.290573 
	C80.701462,134.833618 80.834740,134.376663 80.983864,133.564774 
	C80.976540,132.500931 80.953377,131.792038 80.930222,131.083130 
	C80.930222,131.083130 81.001717,131.003601 81.038483,130.963806 
	C81.886093,131.599228 83.420425,132.296982 83.400208,132.946289 
	C83.047150,144.280304 82.503632,155.608368 82.003181,167.396118 
	C79.864159,167.448380 77.723511,167.042267 75.282150,166.438263 
z"/>
<path fill="#2AA6C2" opacity="1.000000" stroke="none" 
	d="
M104.002525,135.205658 
	C104.009232,145.889877 104.015945,156.574097 104.039268,167.744476 
	C102.300018,168.471222 100.544159,168.711823 98.397720,168.892380 
	C98.005180,158.680557 97.922600,148.527512 98.082954,138.378296 
	C98.108788,136.742920 97.015877,132.447174 102.070999,135.371155 
	C103.107101,135.220047 103.554810,135.212845 104.002525,135.205658 
z"/>
<path fill="#42C2D3" opacity="1.000000" stroke="none" 
	d="
M60.004631,66.872269 
	C60.003071,56.548882 60.054523,46.224991 59.956177,35.902523 
	C59.935986,33.783211 59.355545,31.669237 58.963421,29.109880 
	C60.688526,27.769619 62.483559,26.872280 64.622322,25.940369 
	C64.977913,39.253662 64.989769,52.601524 64.590126,66.478195 
	C62.787289,66.962090 61.395962,66.917183 60.004631,66.872269 
z"/>
<path fill="#2AA6C2" opacity="1.000000" stroke="none" 
	d="
M101.002342,66.869339 
	C101.001793,51.586094 101.001244,36.302845 101.001274,20.557732 
	C102.398140,20.096407 103.794411,20.096952 105.580246,20.616337 
	C105.646538,23.747654 105.064095,26.358137 105.043983,28.972946 
	C104.946793,41.605568 105.000893,54.239349 104.605194,66.944260 
	C103.140137,66.966972 102.071243,66.918152 101.002342,66.869339 
z"/>
<path fill="#259FBE" opacity="1.000000" stroke="none" 
	d="
M115.616219,135.992935 
	C115.998550,145.680176 115.999237,155.362808 116.000031,165.512665 
	C114.301392,166.462219 112.602646,166.944534 110.522049,167.481537 
	C110.093361,158.326965 110.202148,149.113113 109.931519,139.910431 
	C109.803596,135.560349 111.602127,134.774490 115.616219,135.992935 
z"/>
<path fill="#2AA4C1" opacity="1.000000" stroke="none" 
	d="
M105.001343,66.872719 
	C105.000893,54.239349 104.946793,41.605568 105.043983,28.972946 
	C105.064095,26.358137 105.646538,23.747654 105.983437,20.735188 
	C106.541443,20.370951 107.085808,20.406700 107.837799,20.626816 
	C108.030182,34.266716 108.069084,47.722782 107.936378,61.177158 
	C107.918236,63.016708 107.044731,64.847824 105.989182,66.850555 
	C105.411118,67.018280 105.001343,66.872719 105.001343,66.872719 
z"/>
<path fill="#FAFDFE" opacity="1.000000" stroke="none" 
	d="
M59.611855,66.945282 
	C61.395962,66.917183 62.787289,66.962090 64.591644,66.938721 
	C65.248459,68.518471 65.957230,70.256615 65.658195,71.799416 
	C64.090317,79.888519 62.247822,87.924065 60.548382,95.988266 
	C60.187710,97.699722 60.025448,99.452988 59.690784,101.740608 
	C64.246056,101.740608 68.176498,101.740608 72.562866,101.635574 
	C72.934135,103.711700 72.849464,105.892853 72.685219,108.452438 
	C70.682053,108.904655 68.758446,108.978439 66.420364,109.114105 
	C64.289436,109.134186 62.572983,109.092392 60.431137,109.112122 
	C57.633503,109.133499 55.261269,109.093353 52.448257,109.113647 
	C48.759712,109.132202 48.941608,107.361336 49.524590,104.881752 
	C51.481655,96.557747 53.225342,88.183571 55.030956,79.414879 
	C55.741913,75.521484 56.391331,72.020912 57.275742,68.580757 
	C57.441498,67.936020 58.547153,67.532906 59.611855,66.945282 
z"/>
<path fill="#F9FCFD" opacity="1.000000" stroke="none" 
	d="
M104.605194,66.944260 
	C105.001343,66.872719 105.411118,67.018280 105.627617,67.038177 
	C105.841850,68.098854 105.839584,69.139633 105.845932,70.572678 
	C104.946960,74.716347 104.039360,78.467751 103.027817,82.991669 
	C101.225533,92.058716 99.527206,100.353249 97.828873,108.647789 
	C95.510048,108.781479 93.191223,108.915169 90.438164,109.110931 
	C89.897057,107.675262 89.452812,106.109558 89.738586,104.690903 
	C91.468979,96.100410 93.366074,87.543495 95.440437,77.891296 
	C92.088158,79.939178 89.639336,81.435143 86.667114,83.250854 
	C85.655388,81.571152 84.768478,80.098671 83.677353,78.318237 
	C83.975800,77.266121 84.478462,76.521965 85.206833,75.504395 
	C88.513542,73.429863 91.594528,71.628769 94.880692,69.574684 
	C96.822548,68.554993 98.559242,67.788284 100.649139,66.945457 
	C102.071243,66.918152 103.140137,66.966972 104.605194,66.944260 
z"/>
<path fill="#FAFDFE" opacity="1.000000" stroke="none" 
	d="
M80.636505,131.167862 
	C80.953377,131.792038 80.976540,132.500931 80.740234,133.619827 
	C80.480766,134.029816 79.981293,134.040436 79.981293,134.040436 
	C79.981293,134.040436 79.996651,134.015411 79.979492,134.015594 
	C79.946663,133.843628 79.930992,133.671478 79.858818,133.246216 
	C79.982475,132.412933 80.162628,131.832764 80.636505,131.167862 
z"/>
<path fill="#F7FBFD" opacity="1.000000" stroke="none" 
	d="
M133.261078,106.223450 
	C131.831619,107.170006 130.625763,107.837303 129.207916,108.722748 
	C126.921722,109.188789 124.847527,109.436699 122.382507,109.743843 
	C120.253212,109.155685 118.514732,108.508286 116.310226,107.488739 
	C114.978394,106.369423 114.112587,105.622238 113.246780,104.875053 
	C109.860954,95.108475 112.124428,85.847412 115.817322,76.351852 
	C117.759857,73.766373 119.652122,71.538788 121.771439,69.055588 
	C124.435852,68.017593 126.873215,67.235214 129.650421,66.310883 
	C132.269592,66.793137 134.548920,67.417351 137.167725,68.132996 
	C144.105713,75.468842 141.714523,83.891891 140.620239,92.135719 
	C140.491486,93.105690 140.162506,94.049080 139.918060,95.401398 
	C137.768097,99.180069 135.626389,102.562134 133.261078,106.223450 
M121.512215,87.271217 
	C121.253098,90.409622 120.648247,93.572136 120.864868,96.677353 
	C120.994308,98.532730 122.411041,100.298302 123.249130,102.104240 
	C125.094063,100.997658 128.171677,100.222343 128.573303,98.727882 
	C130.441422,91.776581 131.707565,84.647690 132.809753,77.523651 
	C132.972427,76.472229 131.265671,74.331383 130.131989,74.095146 
	C128.893661,73.837120 126.600952,74.831917 126.020279,75.938103 
	C124.271866,79.268822 123.132393,82.919189 121.512215,87.271217 
z"/>
<path fill="#F7FBFD" opacity="1.000000" stroke="none" 
	d="
M89.656128,131.183838 
	C89.961426,131.783951 89.962746,132.459625 89.944580,133.472702 
	C89.734108,132.959869 89.543129,132.109619 89.656128,131.183838 
z"/>
<path fill="#259FBE" opacity="1.000000" stroke="none" 
	d="
M112.910103,105.150551 
	C114.112587,105.622238 114.978394,106.369423 115.979469,107.369354 
	C116.076355,115.102638 116.037971,122.583153 115.999336,130.532440 
	C114.934959,130.990585 113.870842,130.979965 112.408707,130.943665 
	C112.198273,122.420662 112.385849,113.923355 112.910103,105.150551 
z"/>
<path fill="#2AA6C2" opacity="1.000000" stroke="none" 
	d="
M97.879265,109.086739 
	C99.527206,100.353249 101.225533,92.058716 103.047562,83.383118 
	C103.780800,84.498154 104.906364,85.989738 104.919510,87.491058 
	C105.041451,101.419579 104.971779,115.349770 104.705971,129.746887 
	C104.168114,130.291260 103.876923,130.329910 103.580650,130.330261 
	C100.208328,130.347198 98.796112,129.040482 98.879616,125.317024 
	C98.997437,120.062988 98.286362,114.790367 97.879265,109.086739 
z"/>
<path fill="#F7FBFD" opacity="1.000000" stroke="none" 
	d="
M103.414444,130.734924 
	C103.876923,130.329910 104.168114,130.291260 104.674835,130.230042 
	C104.916626,130.937012 104.937820,131.628281 104.480652,132.708618 
	C103.386436,133.216721 102.770576,133.335724 102.154709,133.454727 
	C102.519218,132.683014 102.883720,131.911316 103.414444,130.734924 
z"/>
<path fill="#5DDDE4" opacity="1.000000" stroke="none" 
	d="
M102.008377,133.666046 
	C102.770576,133.335724 103.386436,133.216721 104.466949,133.054718 
	C104.788933,133.608032 104.646263,134.204330 104.253067,135.003143 
	C103.554810,135.212845 103.107101,135.220047 102.342865,135.343460 
	C101.971573,134.932251 101.916801,134.404800 102.008377,133.666046 
z"/>
<path fill="#259FBE" opacity="1.000000" stroke="none" 
	d="
M117.048981,134.246826 
	C117.565460,134.426346 118.054100,134.867661 118.542740,135.308975 
	C118.137115,135.360825 117.731491,135.412689 117.158272,135.249390 
	C117.000832,134.859024 117.010979,134.683823 117.048981,134.246826 
z"/>
<path fill="#3FBCD0" opacity="1.000000" stroke="none" 
	d="
M80.003296,134.293152 
	C79.981293,134.040436 80.480766,134.029816 80.724396,133.974762 
	C80.834740,134.376663 80.701462,134.833618 80.568176,135.290573 
	C80.387215,135.042328 80.206261,134.794098 80.003296,134.293152 
z"/>
<path fill="#2199BA" opacity="1.000000" stroke="none" 
	d="
M121.633820,86.858055 
	C123.132393,82.919189 124.271866,79.268822 126.020279,75.938103 
	C126.600952,74.831917 128.893661,73.837120 130.131989,74.095146 
	C131.265671,74.331383 132.972427,76.472229 132.809753,77.523651 
	C131.707565,84.647690 130.441422,91.776581 128.573303,98.727882 
	C128.171677,100.222343 125.094063,100.997658 123.249130,102.104240 
	C122.411041,100.298302 120.994308,98.532730 120.864868,96.677353 
	C120.648247,93.572136 121.253098,90.409622 121.633820,86.858055 
z"/>
</svg>